<?xml version="1.0" encoding="UTF-8" standalone="no"?>
<!-- Created with Inkscape (http://www.inkscape.org/) -->

<svg
   xmlns:dc="http://purl.org/dc/elements/1.1/"
   xmlns:cc="http://creativecommons.org/ns#"
   xmlns:rdf="http://www.w3.org/1999/02/22-rdf-syntax-ns#"
   xmlns:svg="http://www.w3.org/2000/svg"
   xmlns="http://www.w3.org/2000/svg"
   xmlns:xlink="http://www.w3.org/1999/xlink"
   xmlns:sodipodi="http://sodipodi.sourceforge.net/DTD/sodipodi-0.dtd"
   xmlns:inkscape="http://www.inkscape.org/namespaces/inkscape"
   id="svg3406"
   version="1.1"
   inkscape:version="0.91 r13725"
   width="619.20001"
   height="75.599998"
   viewBox="0 0 619.20001 75.599998"
   sodipodi:docname="kaansat.svg">
  <metadata
     id="metadata3412">
    <rdf:RDF>
      <cc:Work
         rdf:about="">
        <dc:format>image/svg+xml</dc:format>
        <dc:type
           rdf:resource="http://purl.org/dc/dcmitype/StillImage" />
        <dc:title></dc:title>
      </cc:Work>
    </rdf:RDF>
  </metadata>
  <defs
     id="defs3410" />
  <path
     style="fill:#ffffff"
     d="m 13.8,66.299998 0,-9.3 6.9,0 6.9,0 0,9.3 0,9.3 -6.9,0 -6.9,0 0,-9.3 z m 39.900001,-0.9 -10.186762,-10.199999 -21.456619,0 -21.45661999,0 0,-6.6 0,-6.6 24.45401899,0 24.454018,0 16.791964,16.799999 16.791966,16.8 -9.602604,0 -9.602598,0 -10.186764,-10.2 z m 32.1,-9.145671 0,-19.345672 15.145589,-15.154327 15.14559,-15.1543282 19.35441,0 19.35441,0 0,9.3000002 0,9.299999 -6.9,0 -6.9,0 0,-2.4 0,-2.4 -9.45592,0 -9.45592,0 -11.24408,11.255772 -11.244078,11.255772 0,16.344227 0,16.344228 -6.900001,0 -6.9,0 0,-19.345671 z m 14.999999,3.28791 0,-16.05776 8.56421,-8.548931 8.56421,-8.548931 25.18579,0.156692 25.18579,0.156692 0.16965,6.75 0.16965,6.75 -22.43193,0 -22.43194,0 -4.58771,4.272816 -4.58772,4.272816 0,13.427183 0,13.427184 -6.9,0 -6.9,0 0,-16.057761 z m 40.2,-0.742239 0,-16.799999 6.9,0 6.9,0 0,16.799999 0,16.8 -6.9,0 -6.9,0 0,-16.8 z m 49.2,-2.545671 0,-19.345672 15.14559,-15.154327 15.14559,-15.1543282 19.35441,0 19.35441,0 0,9.3000002 0,9.299999 -6.9,0 -6.9,0 0,-2.4 0,-2.4 -9.45592,0 -9.45592,0 L 215.24408,31.655771 204,42.911543 l 0,16.344227 0,16.344228 -6.9,0 -6.9,0 0,-19.345671 z m 15,3.28791 0,-16.05776 8.56421,-8.548931 8.56422,-8.548931 25.18578,0.156692 25.18579,0.156692 0.16965,6.75 0.16965,6.75 -22.39822,0 -22.39823,0 -4.62142,4.591574 -4.62143,4.591573 0,13.108424 0,13.108428 -6.9,0 -6.9,0 0,-16.057761 z m 40.2,-0.742239 0,-16.799999 6.9,0 6.9,0 0,16.799999 0,16.8 -6.9,0 -6.9,0 0,-16.8 z m 29.41028,-17.099999 c -0.006,-18.645 0.19035,-33.8999992 0.43676,-33.8999992 0.24641,0 15.50509,15.1874992 33.90817,33.7499992 l 33.46015,33.749999 -9.43802,0.1659 -9.43802,0.165894 L 306.16966,58.06971 288.6,40.507627 l 0,17.546185 0,17.546186 -6.88923,0 -6.88924,0 -0.0113,-33.899999 z m 113.38973,26.999999 0,-6.9 18.15,0.01224 18.15,0.01224 16.32006,-16.662224 16.32006,-16.662255 0.0299,9.904892 0.0299,9.904891 -13.65479,13.645106 -13.65479,13.64511 -20.84521,0 -20.84521,0 0,-6.9 z m 73.81518,-12.149999 0.0152,-19.05 15.32871,-15.45 15.32872,-15.4499992 19.4561,0 19.45611,0 0,9.3000002 0,9.299999 -6.9,0 -6.9,0 0,-2.4 0,-2.4 -9.75592,0 -9.75593,0 -11.24407,11.255772 -11.24408,11.255772 0,16.344227 0,16.344228 -6.9,0 -6.9,0 0.0152,-19.049999 z m 15.00464,2.999999 0.069,-16.049999 8.56282,-8.55 8.56282,-8.55 25.29278,0 25.29277,0 0,6.9 0,6.9 -22.36408,0 -22.36407,0 -4.63593,4.663274 -4.63592,4.663274 0,13.036723 0,13.036728 -6.92459,0 -6.92459,0 0.069,-16.05 z m 40.78018,-0.75 0,-16.799999 6.9,0 6.9,0 0,16.799999 0,16.8 -6.9,0 -6.9,0 0,-16.8 z m 52.2,-10.799999 0,-27.6 -10.2,0 -10.2,0 0,-6.899999 0,-6.9000002 17.1,0 17.1,0 0,34.4999992 0,34.499999 -6.9,0 -6.9,0 0,-27.599999 z m 15,-6.9 0,-34.4999992 17.11968,0 17.11962,0 -0.16962,6.7500002 -0.16968,6.749999 -10.05,0.164508 -10.05,0.164507 0,27.585492 0,27.585492 -6.9,0 -6.9,0 0,-34.499999 z m -274.8,-0.6 -33.89602,-33.8999992 9.59426,0 9.59425,0 17.55376,17.5461862 17.55375,17.546185 0,-17.546185 0,-17.5461862 6.9,0 6.9,0 0,33.8999992 c 0,18.644999 -0.0684,33.899999 -0.152,33.899999 -0.0836,0 -15.40519,-15.255 -34.048,-33.899999 z m 78,13.2 0,-6.9 14.87255,0 14.87255,0 2.82745,-2.87061 c 1.5551,-1.578835 2.82745,-3.063835 2.82745,-3.299999 0,-0.236165 -8.0307,-0.429391 -17.84598,-0.429391 l -17.84599,0 16.79197,-16.8 16.79196,-16.7999992 17.85402,0 17.85402,0 0,6.9000002 0,6.899999 -14.87256,0 -14.87255,0 -2.95489,3 -2.9549,3 17.82745,0 c 9.8051,0 17.8362,0.2025 17.84688,0.45 0.0107,0.2475 -7.61681,7.939576 -16.95,17.093501 l -16.96943,16.643502 -17.55,0.0065 -17.55,0.0065 0,-6.899999 z m -387.60000999,-20.4 0,-6.9 21.45681999,0 21.45682,0 9.886361,-9.899999 9.886362,-9.9000002 9.902802,0 9.902802,0 -16.791966,16.7999992 -16.791964,16.8 -24.454018,0 -24.45401899,0 0,-6.9 z M 13.8,15.9 l 0,-9.3000002 6.9,0 6.9,0 0,9.3000002 0,9.299999 -6.9,0 -6.9,0 L 13.8,15.9 Z M 177,18.285021 c 0,-0.173238 0.9484,-2.198238 2.10754,-4.5 l 2.10755,-4.1850213 -2.10755,0 -2.10754,0 0,-4.7999998 L 177,0 l 4.8,0 4.8,0 0,4.3817382 c 0,3.8782516 -0.27329,4.9468744 -2.37842,9.2999998 L 181.84317,18.6 l -2.42159,0 C 178.08972,18.6 177,18.458259 177,18.285021 Z"
     id="path3420"
     inkscape:connector-curvature="0" />
</svg>
