<?xml version="1.0" encoding="UTF-8" standalone="no"?>
<!-- Created with Inkscape (http://www.inkscape.org/) -->

<svg
   xmlns:dc="http://purl.org/dc/elements/1.1/"
   xmlns:cc="http://creativecommons.org/ns#"
   xmlns:rdf="http://www.w3.org/1999/02/22-rdf-syntax-ns#"
   xmlns:svg="http://www.w3.org/2000/svg"
   xmlns="http://www.w3.org/2000/svg"
   xmlns:sodipodi="http://sodipodi.sourceforge.net/DTD/sodipodi-0.dtd"
   xmlns:inkscape="http://www.inkscape.org/namespaces/inkscape"
   version="1.1"
   id="svg3767"
   width="523.65741"
   height="523.65741"
   viewBox="0 0 523.65741 523.65741"
   sodipodi:docname="satellite.svg"
   inkscape:version="0.92.2 2405546, 2018-03-11">
  <metadata
     id="metadata3773">
    <rdf:RDF>
      <cc:Work
         rdf:about="">
        <dc:format>image/svg+xml</dc:format>
        <dc:type
           rdf:resource="http://purl.org/dc/dcmitype/StillImage" />
        <dc:title></dc:title>
      </cc:Work>
    </rdf:RDF>
  </metadata>
  <defs
     id="defs3771" />
  <sodipodi:namedview
     pagecolor="#ffffff"
     bordercolor="#666666"
     borderopacity="1"
     objecttolerance="10"
     gridtolerance="10"
     guidetolerance="10"
     inkscape:pageopacity="0"
     inkscape:pageshadow="2"
     inkscape:window-width="1920"
     inkscape:window-height="985"
     id="namedview3769"
     showgrid="false"
     inkscape:zoom="0.80440469"
     inkscape:cx="-42.663911"
     inkscape:cy="336.06839"
     inkscape:window-x="0"
     inkscape:window-y="0"
     inkscape:window-maximized="1"
     inkscape:current-layer="svg3767"
     fit-margin-top="0"
     fit-margin-left="0"
     fit-margin-right="0"
     fit-margin-bottom="0" />
  <path
     style="fill:#72d5a3;stroke-width:1.35021091"
     d="m 238.85642,522.3707 c -37.40105,-2.95029 -71.26371,-13.53574 -90.6224,-28.3285 -6.85976,-5.24182 -19.34659,-21.74458 -22.91479,-30.2845 -1.5495,-3.70848 -1.87281,-35.22494 -1.92987,-188.12693 l -0.0686,-183.672169 3.95124,-7.81688 c 2.17319,-4.2993 6.86608,-11.76627 10.42864,-16.59327 5.33363,-7.22667 6.41565,-9.64733 6.1278,-13.70886 -1.3436,-18.95901 22.38864,-37.647562 59.66772,-46.9868115 79.06859,-19.8084605 176.4573,5.6887995 176.4573,46.1981415 0,5.39281 0.90537,7.44942 6.57976,14.94634 3.61888,4.7812 8.2051,12.12873 10.19161,16.32786 l 3.61182,7.63477 -0.0964,183.127119 c -0.0531,100.71992 -0.48283,184.69571 -0.95519,186.61284 -0.47237,1.91715 -2.12915,5.37904 -3.68174,7.69309 -1.5526,2.31406 -5.06243,7.58142 -7.79965,11.70526 -14.606,22.00522 -54.20158,37.43009 -106.348,41.42893 -20.00827,1.53434 -21.22205,1.52988 -42.5993,-0.15643 z m 67.51055,-12.62073 c 46.43018,-7.50178 79.84571,-24.02425 89.68224,-44.3438 2.79846,-5.78085 2.80721,-6.34331 2.80721,-180.4893 V 110.22651 l -3.91729,6.17692 c -7.82097,12.33241 -31.66833,25.77453 -60.36794,34.02781 -26.41504,7.5963 -41.75248,9.54653 -74.11139,9.42364 -24.76395,-0.0941 -30.68963,-0.55753 -46.79577,-3.66014 -22.51947,-4.33804 -43.57102,-11.09098 -58.0379,-18.61748 -11.29653,-5.8771 -24.10619,-16.45546 -28.39213,-23.44653 -2.41781,-3.94386 -2.4742,0.59433 -2.13929,172.15189 0.33642,172.33157 0.40204,176.29152 2.98652,180.25316 10.39212,15.92962 25.51268,25.78291 53.77049,35.03949 12.93255,4.23638 40.1194,9.46949 55.65449,10.71273 13.93735,1.11539 55.79827,-0.4275 68.86076,-2.53803 z m 3.37553,-355.5862 c 37.43078,-7.69708 61.88455,-17.96096 77.42739,-32.49824 12.41708,-11.61375 14.49417,-21.06034 7.82354,-35.581329 -3.87319,-8.43137 -13.47894,-22.52741 -15.37752,-22.56587 -0.55696,-0.0108 -1.01265,1.37952 -1.01265,3.09067 0,3.54551 -6.14359,13.67889 -10.949,18.05954 -5.19575,4.73649 -18.38948,12.20965 -28.03949,15.882059 -60.06127,22.85693 -152.22578,14.06511 -184.67633,-17.616769 -5.22548,-5.10169 -7.59904,-8.65782 -8.81619,-13.20862 -0.91608,-3.42507 -1.99526,-6.2037 -2.39819,-6.17473 -1.46434,0.10531 -10.07818,12.80695 -13.97862,20.61245 -2.19923,4.40101 -4.29415,10.62412 -4.6554,13.82912 -2.72714,24.195159 41.16658,49.535599 100.51208,58.026969 19.19408,2.74637 66.87549,1.695 84.14038,-1.85525 z m -2.08831,-55.534589 c 41.03112,-8.12816 66.20252,-23.46315 70.22406,-42.78209 3.31468,-15.9234 -16.59862,-34.526252 -47.20748,-44.100862 -22.92683,-7.1716195 -39.71408,-9.4721195 -68.86076,-9.4365695 -26.50066,0.0323 -43.39308,2.12487 -63.6773,7.8880295 -35.53302,10.09567 -57.04544,29.929622 -51.82532,47.781762 5.15104,17.61591 30.00706,32.55139 66.63172,40.03764 18.14883,3.709719 28.66734,4.474759 54.94685,3.996449 18.70544,-0.34044 28.69325,-1.19042 39.76823,-3.384359 z M 149.18916,50.279471 c -0.4883,-17.81222 25.02026,-33.824152 67.50999,-42.3765215 13.41925,-2.70104 19.32437,-3.09371 45.78596,-3.04456 27.78213,0.0516 31.86323,0.37045 47.72929,3.72894 37.97218,8.0378395 62.0996,22.7351115 63.83646,38.8861115 l 0.63425,5.89779 -1.94683,-4.19898 c -7.22637,-15.58614 -36.89897,-29.674332 -75.14768,-35.679212 -5.56962,-0.87441 -25.01266,-1.77672 -43.20675,-2.00515 -30.25947,-0.37991 -36.04431,1.057 -42.83726,3.51539 -4.08439,1.47815 -10.56359,3.28523 -17.24714,5.53516 -23.4387,7.890322 -40.81516,19.773742 -43.75469,29.923002 l -1.23382,4.26001 -0.12179,-4.44198 z"
     id="path3777"
     inkscape:connector-curvature="0"
     sodipodi:nodetypes="cssscsscsscccscscsccsssccscsscsssssssscsssccccsssccssssssccssscccsssscccc" />
</svg>
