<!DOCTYPE svg PUBLIC "-//W3C//DTD SVG 20010904//EN" "http://www.w3.org/TR/2001/REC-SVG-20010904/DTD/svg10.dtd">
<svg version="1.0" xmlns="http://www.w3.org/2000/svg" width="718px" height="301px" viewBox="0 0 7180 3010" preserveAspectRatio="xMidYMid meet">
<g id="layer101" fill="#ffffff" stroke="none">
 <path d="M5160 2208 c-316 -440 -576 -806 -578 -812 -1 -6 92 -314 208 -685 115 -371 208 -676 207 -678 -2 -1 -119 302 -261 675 -142 372 -263 682 -269 689 -16 16 -1648 885 -1653 880 -3 -2 88 -100 201 -218 l205 -214 -123 -3 -122 -3 -374 -620 c-232 -384 -377 -615 -381 -607 -4 7 -74 286 -156 621 l-148 607 -108 0 c-107 0 -108 0 -103 -22 3 -13 73 -297 155 -632 83 -335 150 -627 150 -648 0 -22 -4 -48 -10 -58 -11 -21 -78 -48 -129 -52 l-34 -3 -122 492 c-101 409 -129 506 -163 578 -72 149 -193 253 -362 309 -280 92 -779 83 -979 -18 -73 -37 -116 -80 -148 -144 -25 -51 -28 -68 -27 -152 0 -86 10 -135 107 -524 59 -236 107 -446 107 -467 0 -62 -53 -91 -187 -105 -67 -7 -68 -9 -53 -48 l10 -26 325 0 c179 0 325 2 325 4 0 2 -56 230 -124 507 -69 277 -130 535 -137 573 -24 142 8 238 98 292 67 40 139 54 280 54 271 0 438 -81 524 -255 23 -48 65 -200 156 -568 68 -276 128 -519 134 -539 l10 -38 413 0 413 0 358 595 c197 327 360 593 361 592 2 -2 67 -261 144 -577 78 -316 143 -583 146 -592 5 -16 19 -18 110 -18 82 0 104 3 104 14 0 7 -74 316 -165 686 -91 370 -164 674 -163 675 2 1 376 -387 833 -862 456 -475 831 -859 833 -854 2 6 7 9 11 7 4 -3 77 280 162 629 l154 635 11 -73 c47 -302 185 -562 367 -691 158 -112 322 -164 588 -187 333 -28 625 32 757 155 155 145 173 399 53 752 -120 355 -351 548 -733 610 l-108 17 19 31 c53 85 188 121 414 112 l138 -6 -7 37 c-3 21 -10 41 -13 46 -29 31 -581 34 -729 3 -152 -32 -252 -102 -284 -198 -14 -41 -15 -41 -92 -60 -96 -22 -187 -65 -243 -113 -24 -20 -41 -31 -38 -23 14 40 315 1295 313 1305 -2 6 -262 -349 -578 -789z m1122 -477 c237 -61 366 -207 462 -523 71 -236 94 -443 61 -555 -9 -29 -32 -69 -56 -97 -73 -83 -169 -116 -332 -116 -384 1 -604 229 -707 731 -28 136 -25 310 6 380 42 92 119 155 224 183 82 22 250 20 342 -3z"/>
 <path d="M384 2958 c-43 -21 -59 -114 -30 -183 40 -96 186 -91 186 6 l0 29 -75 0 -75 0 0 36 c0 51 46 96 89 88 24 -5 31 -3 31 9 0 8 -7 18 -16 21 -24 9 -86 6 -110 -6z m106 -193 c0 -26 -49 -30 -73 -6 l-21 21 47 0 c35 0 47 -4 47 -15z"/>
 <path d="M754 2947 c-23 -20 -27 -31 -27 -78 0 -106 46 -162 130 -162 38 0 50 5 70 27 46 54 18 187 -46 220 -44 23 -95 20 -127 -7z m101 -31 c23 -23 45 -82 45 -123 0 -29 -27 -55 -53 -51 -54 8 -90 136 -50 180 21 24 29 23 58 -6z"/>
 <path d="M1271 2951 c-39 -39 -19 -188 30 -227 27 -21 68 -25 99 -9 17 9 30 11 30 5 0 -5 11 -10 25 -10 21 0 25 4 20 23 -7 31 -45 218 -45 223 0 3 -15 4 -32 4 -18 0 -49 3 -70 6 -28 5 -40 2 -57 -15z m115 -62 c34 -66 14 -163 -30 -146 -44 17 -74 147 -42 180 22 22 50 9 72 -34z"/>
 <path d="M1524 2945 c-15 -24 -15 -32 0 -113 24 -122 24 -122 52 -122 20 0 23 4 19 23 -28 121 -34 171 -24 183 33 40 82 -18 105 -126 16 -72 20 -80 41 -80 28 0 28 -3 0 135 -20 98 -25 110 -45 113 -12 2 -22 -2 -22 -8 0 -7 -8 -5 -22 4 -35 25 -85 21 -104 -9z"/>
 <path d="M1818 2959 c-26 -15 -24 -58 7 -196 4 -18 1 -23 -15 -23 -11 0 -20 -7 -20 -15 0 -9 9 -15 25 -15 18 0 25 -5 25 -20 0 -21 33 -60 51 -60 7 0 8 14 4 40 -7 39 -6 40 24 40 21 0 31 5 31 15 0 10 -10 15 -34 15 -39 0 -40 1 -57 104 -14 84 -8 99 34 88 16 -4 19 -2 14 12 -4 10 -7 20 -7 22 0 8 -66 3 -82 -7z"/>
 <path d="M2125 2958 c-11 -6 -26 -18 -32 -26 -19 -23 -16 -121 5 -162 44 -88 182 -88 182 1 0 26 -3 29 -31 29 -24 0 -29 -3 -25 -17 9 -29 -8 -47 -39 -39 -50 13 -73 121 -36 167 15 18 28 23 60 22 42 -2 50 4 29 25 -15 15 -86 15 -113 0z"/>
 <path d="M2316 2952 c-39 -44 -29 -153 19 -210 31 -38 68 -47 106 -28 16 8 29 10 29 5 0 -5 11 -9 25 -9 14 0 25 3 25 8 0 4 -10 60 -22 125 l-22 117 -30 0 c-17 0 -49 3 -71 6 -32 5 -44 2 -59 -14z m83 -22 c23 -12 51 -80 51 -123 0 -41 -20 -70 -46 -66 -42 8 -76 145 -45 183 16 19 17 19 40 6z"/>
 <path d="M2723 2955 c-51 -36 -49 -167 3 -218 49 -49 134 -41 153 14 17 50 7 59 -70 59 l-69 0 0 39 c0 54 27 85 74 84 23 -1 36 4 36 12 0 28 -91 35 -127 10z m117 -184 c0 -32 -71 -38 -84 -6 -4 12 4 15 39 15 25 0 45 -4 45 -9z"/>
 <path d="M3647 2952 c-21 -23 -21 -45 1 -152 15 -74 21 -85 40 -88 27 -4 28 8 6 113 -15 71 -15 79 0 93 14 15 18 14 43 -5 31 -22 46 -58 63 -145 10 -52 14 -58 36 -58 13 0 24 2 24 4 0 5 -38 193 -45 224 -4 16 -13 22 -31 22 -17 0 -23 -4 -18 -12 4 -6 -3 -4 -17 5 -31 22 -82 22 -102 -1z"/>
 <path d="M3918 2939 c-29 -29 -30 -33 -26 -94 7 -76 33 -118 83 -135 61 -20 115 11 115 66 l0 33 -72 3 -73 3 1 39 c2 52 40 88 84 79 23 -4 30 -2 30 10 0 19 -21 27 -72 27 -31 0 -46 -7 -70 -31z m120 -176 c-4 -22 -44 -29 -64 -13 -24 21 -16 30 27 30 33 0 40 -3 37 -17z"/>
 <path d="M4334 2958 c-43 -21 -59 -114 -30 -183 40 -96 186 -91 186 6 l0 29 -75 0 -75 0 0 36 c0 51 46 96 89 88 24 -5 31 -3 31 9 0 8 -7 18 -16 21 -24 9 -86 6 -110 -6z m106 -193 c0 -26 -49 -30 -73 -6 l-21 21 47 0 c35 0 47 -4 47 -15z"/>
 <path d="M4556 2955 c-19 -20 -20 -40 -1 -125 19 -86 19 -90 -6 -90 -27 0 -20 -24 9 -28 13 -2 23 -13 27 -31 4 -17 16 -33 32 -40 l26 -12 -6 41 c-5 39 -4 40 24 40 19 0 29 5 29 15 0 10 -10 15 -34 15 l-33 0 -17 86 c-19 93 -12 120 26 108 15 -5 19 -2 16 13 -4 25 -69 30 -92 8z"/>
 <path d="M4719 2953 c-25 -28 -31 -70 -19 -129 20 -94 80 -141 141 -110 16 8 29 10 29 5 0 -5 11 -9 25 -9 30 0 30 -2 4 138 l-21 112 -32 0 c-17 0 -49 3 -71 6 -32 4 -44 2 -56 -13z m83 -24 c27 -14 48 -68 48 -122 0 -79 -55 -89 -84 -16 -19 47 -21 120 -4 137 15 15 14 15 40 1z"/>
 <path d="M5153 2958 c-64 -31 -48 -188 23 -235 38 -24 110 -22 137 6 29 29 31 130 3 177 -34 57 -106 80 -163 52z m87 -36 c28 -22 53 -114 40 -147 -11 -30 -26 -38 -54 -31 -50 12 -81 153 -41 182 24 18 28 18 55 -4z"/>
 <path d="M56 2853 c136 -257 133 -253 163 -253 l28 0 22 163 c12 89 25 170 27 180 4 13 -1 17 -25 17 -28 0 -30 -2 -36 -55 l-7 -55 -59 0 -59 0 -27 55 c-24 48 -31 55 -56 55 l-29 0 58 -107z m158 -105 c-3 -40 -8 -75 -10 -77 -3 -3 -74 134 -74 144 0 3 21 5 46 5 l45 0 -7 -72z"/>
 <path d="M576 2888 c34 -181 33 -178 61 -178 20 0 24 4 19 17 -6 15 -5 16 11 1 20 -17 73 -32 73 -21 -1 28 -15 53 -31 53 -39 0 -68 41 -82 120 -12 69 -15 75 -39 78 l-26 3 14 -73z"/>
 <path d="M980 2948 c1 -7 11 -62 23 -123 20 -98 25 -110 45 -113 15 -2 22 2 22 14 0 15 2 16 18 2 25 -22 50 -29 79 -22 38 10 45 43 27 137 -21 115 -22 117 -50 117 -20 0 -23 -4 -19 -22 20 -89 32 -163 28 -175 -8 -21 -42 -15 -68 13 -17 18 -30 52 -41 105 -16 71 -20 79 -41 79 -13 0 -23 -6 -23 -12z"/>
 <path d="M1950 2948 c1 -7 11 -62 23 -123 20 -98 25 -110 45 -113 28 -4 28 4 1 141 -20 100 -23 107 -45 107 -13 0 -24 -6 -24 -12z"/>
 <path d="M2910 2948 c0 -6 10 -63 22 -125 21 -105 24 -113 45 -113 15 0 23 6 23 17 0 14 2 14 20 -2 25 -23 87 -25 101 -4 12 16 6 111 -11 187 -10 45 -15 52 -36 52 -26 0 -26 7 1 -127 14 -69 8 -86 -26 -81 -34 5 -66 59 -80 138 -11 63 -14 70 -36 70 -12 0 -23 -5 -23 -12z"/>
 <path d="M3363 2945 c-66 -46 -48 -243 28 -314 56 -52 154 -46 190 12 30 47 23 166 -14 236 -28 54 -27 57 4 40 18 -9 20 -8 17 13 -3 22 -7 23 -103 26 -77 2 -105 -1 -122 -13z m119 -35 c48 -37 82 -174 59 -233 -14 -36 -53 -54 -86 -39 -70 32 -106 247 -47 281 26 16 47 13 74 -9z"/>
 <path d="M4120 2948 c0 -7 9 -64 21 -125 20 -107 23 -113 45 -113 13 0 24 5 24 11 0 8 4 8 13 2 6 -6 24 -13 40 -17 20 -5 27 -3 27 8 0 28 -12 46 -32 46 -38 0 -65 42 -78 124 -12 70 -15 76 -36 76 -13 0 -24 -6 -24 -12z"/>
 <path d="M4951 2953 c0 -5 10 -60 23 -123 22 -112 23 -115 50 -118 17 -2 26 0 22 6 -3 6 12 3 34 -5 22 -9 42 -14 44 -12 2 2 2 16 -1 32 -4 18 -12 27 -25 27 -49 0 -65 25 -88 143 -10 51 -14 57 -36 57 -13 0 -24 -3 -23 -7z"/>
 <path d="M1380 2640 c16 -30 26 -40 45 -40 30 0 31 4 4 46 -14 24 -28 34 -45 34 l-24 0 20 -40z"/>
 <path d="M4390 2675 c0 -2 8 -20 17 -40 13 -28 22 -35 45 -35 21 0 27 4 22 13 -26 44 -48 67 -65 67 -10 0 -19 -2 -19 -5z"/>
 <path d="M2004 2644 c3 -9 6 -22 6 -30 0 -9 11 -14 31 -14 28 0 31 3 25 23 -3 12 -6 25 -6 30 0 4 -14 7 -31 7 -24 0 -30 -3 -25 -16z"/>
 <path d="M55 2418 c-53 -30 -55 -56 -20 -228 14 -68 25 -124 25 -126 0 -2 12 -4 26 -4 30 0 31 -16 -5 177 -22 123 -16 146 41 151 51 4 71 -26 92 -140 34 -185 35 -188 62 -188 29 0 29 -3 0 152 -28 143 -44 181 -86 203 -34 18 -106 19 -135 3z"/>
 <path d="M974 2418 c-29 -14 -44 -49 -44 -104 0 -92 45 -147 122 -147 49 0 78 28 78 74 l0 29 -75 0 -75 0 0 36 c0 51 48 98 90 89 23 -5 30 -3 30 8 0 8 -7 18 -16 21 -24 9 -86 6 -110 -6z m106 -193 c0 -20 -46 -30 -65 -15 -25 21 -17 30 25 30 29 0 40 -4 40 -15z"/>
 <path d="M1318 2424 c-20 -6 -23 -21 -8 -44 7 -12 12 -12 22 -2 15 15 70 16 86 0 21 -21 13 -36 -33 -68 -40 -28 -45 -35 -45 -70 0 -31 5 -43 26 -56 24 -17 102 -23 123 -10 15 10 0 48 -16 42 -42 -17 -61 -16 -78 0 -17 17 -16 19 6 35 76 57 79 61 79 94 0 53 -27 78 -91 81 -30 1 -62 0 -71 -2z"/>
 <path d="M1670 2410 c-41 -41 -15 -201 38 -229 30 -16 88 -13 106 5 15 14 16 14 16 -5 0 -11 5 -43 11 -71 9 -44 14 -50 36 -50 21 0 24 4 20 23 -3 12 -17 83 -31 157 -38 198 -32 183 -67 178 -16 -3 -32 -1 -35 4 -10 16 -74 8 -94 -12z m116 -61 c34 -66 14 -163 -30 -146 -44 17 -74 147 -42 180 22 22 50 9 72 -34z"/>
 <path d="M1929 2413 c-25 -28 -31 -70 -19 -129 16 -77 50 -114 104 -114 23 0 47 5 54 12 9 9 12 9 12 0 0 -7 11 -12 25 -12 30 0 30 -4 4 137 l-21 113 -32 0 c-17 0 -49 3 -71 6 -32 4 -44 2 -56 -13z m83 -24 c62 -33 64 -205 2 -185 -43 13 -74 152 -42 184 15 15 14 15 40 1z"/>
 <path d="M2194 2423 c-50 -36 -43 -168 11 -227 19 -20 33 -26 68 -26 23 0 48 5 54 11 8 8 14 -3 22 -41 6 -28 11 -58 11 -65 0 -9 10 -15 25 -15 14 0 25 4 25 10 0 22 -63 336 -69 342 -10 10 -135 20 -147 11z m101 -67 c21 -32 30 -108 15 -135 -30 -57 -94 13 -95 106 0 77 39 92 80 29z"/>
 <path d="M310 2408 c0 -6 10 -63 22 -125 21 -105 24 -113 45 -113 15 0 23 6 23 17 0 15 2 15 19 -1 23 -21 74 -24 97 -5 18 15 16 88 -6 187 -10 45 -15 52 -36 52 -28 0 -27 4 -9 -80 8 -36 14 -80 15 -98 0 -30 -2 -33 -27 -30 -38 4 -69 54 -84 138 -11 63 -14 70 -36 70 -12 0 -23 -5 -23 -12z"/>
 <path d="M586 2348 c34 -180 33 -178 60 -178 13 0 24 3 23 8 0 4 -10 59 -23 122 -21 109 -24 115 -48 118 l-26 3 14 -73z"/>
 <path d="M732 2308 c-28 -138 -28 -138 2 -138 22 0 25 7 41 91 l18 91 49 -91 c42 -77 53 -91 74 -91 25 0 25 0 -21 83 -25 45 -56 101 -67 125 -17 33 -27 42 -48 42 -24 0 -26 -4 -48 -112z"/>
 <path d="M1167 2348 c8 -40 19 -97 24 -125 9 -47 13 -53 35 -53 13 0 24 5 24 11 0 8 4 8 13 2 14 -12 67 -23 67 -14 -1 26 -15 51 -30 51 -39 0 -62 34 -79 116 -16 72 -20 79 -43 82 l-26 3 15 -73z"/>
 <path d="M1525 2398 c7 -31 45 -219 45 -224 0 -2 11 -4 25 -4 14 0 25 2 25 4 0 5 -38 193 -45 224 -4 15 -13 22 -30 22 -21 0 -24 -4 -20 -22z"/>
 <path d="M6975 2131 c-11 -5 -30 -19 -41 -32 -67 -74 -15 -189 86 -189 68 0 109 43 110 112 0 38 -6 54 -27 78 -30 33 -90 48 -128 31z m106 -50 c16 -16 29 -39 29 -50 0 -62 -62 -110 -118 -90 -63 22 -79 87 -36 138 35 42 84 43 125 2z"/>
 <path d="M6970 2024 l0 -65 48 3 47 3 1 63 c1 52 -1 62 -15 62 -10 0 -22 -12 -28 -27 l-11 -28 -1 28 c-1 20 -6 27 -21 27 -18 0 -20 -7 -20 -66z"/>
 <path d="M630 2106 c0 -30 13 -46 36 -46 20 0 24 5 24 30 0 27 -3 30 -30 30 -19 0 -30 -5 -30 -14z"/>
 <path d="M1582 2093 c2 -22 9 -29 31 -31 26 -3 28 -1 25 25 -2 22 -9 29 -31 31 -26 3 -28 1 -25 -25z"/>
 </g>

</svg>